<?xml version="1.0" standalone="yes"?>
<svg xmlns="http://www.w3.org/2000/svg" width="800" height="600">
<path style="fill:#fe8600; stroke:none;" d="M262 361C267.454 379.933 282.341 399.67 297 412.424C300.238 415.242 303.247 419.23 307 421.343C310.313 423.208 313.519 421.098 317 421.147C320.537 421.198 323.892 422.721 327 424.27C341.046 431.27 357.747 442.077 374 434.583C382.961 430.452 388.705 420.902 393.999 413C401.949 401.133 409.572 390.026 423 383.9C447.904 372.539 478.658 382.994 499.826 361.826C504.012 357.641 507.5 352.24 510.215 347C513.162 341.311 514.399 335.347 513.41 329C512.746 324.74 511.728 320.824 509.676 317C493.67 287.182 455.628 310.989 431 309.896C421.55 309.477 406.352 304.82 406.322 293C406.309 288.222 410.463 284.531 414.004 281.928C423.267 275.12 433.924 274 445 274C458.513 274 471.607 275.542 485 277.282C494.792 278.554 505.274 280.278 515 277.749C521.799 275.982 528.387 271.459 534 267.36C539.667 263.221 548.272 257.214 550.168 250C551.13 246.339 548.733 242.207 547.219 239C542.936 229.927 537.681 221.166 531.859 213C507.508 178.845 471.947 154.717 430 148.87C418.227 147.228 406.88 146.995 395 147C391.452 147.001 384.391 146.1 382.047 149.564C380.124 152.405 382.942 155.839 385.059 157.581C390.09 161.722 398.754 161.687 405 161.961C420.782 162.652 438.752 159.548 454 164.599C468.512 169.405 481.945 185.168 478.1 201C474.872 214.294 463.276 224.645 450 227.482C442.932 228.993 436.085 228.188 429 228.015C414.844 227.668 400.126 227.122 386 228.09C375.247 228.826 364.772 230.061 356.004 236.844C345.183 245.216 339.659 257.988 326 262.91C307.913 269.427 282.154 262.572 267.225 276.67C259.772 283.707 265.544 293.173 274 295.695C283.216 298.444 293.522 296.624 303 297.039C318.839 297.733 335.371 301.551 348 311.518C356.324 318.087 362.695 328.093 362.66 339C362.595 358.661 341.871 379.979 323 382.7C308.728 384.757 294.817 377.275 283 370.2C277.072 366.651 269.143 359.664 262 361z"/>
<path style="fill:#fed800; stroke:none;" d="M375 148C365.51 149.422 355.883 153.447 347 157C314.385 170.047 285.454 194.763 268.89 226C260.683 241.475 255.623 257.979 251.885 275C247.943 292.951 248.638 312.056 252.2 330C253.38 335.946 254.067 343.602 257.417 348.786C260.321 353.279 267.533 354.962 272 357.603C285.657 365.679 300.423 377.142 317 377.61C320.809 377.717 324.457 375.86 328 374.667C346.542 368.426 364.326 347.493 355.095 327C345.033 304.66 314.976 303 294 303C281.011 303 265.039 302.9 258.576 289C254.916 281.127 261.694 273.388 268 269.468C282.847 260.237 298.919 263.625 315 260.334C323.038 258.689 330.657 256.157 336.829 250.535C345.668 242.486 350.428 232.331 362 227.338C371.607 223.192 382.72 223 393 223C408.96 223 425.129 224.373 441 223.985C455.843 223.623 470.147 216.387 473.957 201C477.339 187.341 467.711 174.263 455 169.559C437.263 162.996 416.369 169.017 398 166.576C386.851 165.094 375.677 161.031 375 148z"/>
<path style="fill:#ffffff; stroke:none;" d="M298 203.468C289.44 205.085 278.929 214.482 285.742 223.786C289.399 228.779 297.367 229.611 303 228.674C310.159 227.484 327.042 220.951 324.153 211.015C321.497 201.885 305.299 202.088 298 203.468z"/>
<path style="fill:#fe8600; stroke:none;" d="M299 206.599C292.507 208.178 281.588 216.34 290.279 222.995C294.708 226.386 300.949 225.766 306 224.485C310.714 223.289 321.514 218.626 320.029 212.188C318.512 205.613 303.948 205.395 299 206.599z"/>
<path style="fill:#ffffff; stroke:none;" d="M379 251.533C371.055 253.464 364.834 261.853 371.228 268.895C375.827 273.959 383.491 275.703 390 274.096C397.845 272.16 407.767 263.395 399.606 255.558C394.673 250.821 385.378 249.983 379 251.533z"/>
<path style="fill:#ff4e00; stroke:none;" d="M379.001 254.573C372.544 256.437 369.767 263.795 375.148 268.581C379.079 272.077 385.115 272.598 390 271.211C396.847 269.267 403.873 262.652 395.891 256.703C391.614 253.515 384.014 253.125 379.001 254.573M316 427C321.498 433.749 331.106 438.014 339 441.421C356.643 449.034 374.953 453.35 394 455.17C447.138 460.247 503.847 432.005 533.784 388C550.53 363.384 559 333.626 559 304C559 288.737 558.264 271.152 552 257C548.381 258.832 546.017 261.896 542.985 264.575C535.686 271.024 525.802 279.49 516 281.61C507.579 283.431 497.468 282.016 489 281.169C472.368 279.506 454.725 276.306 438 278.285C429.422 279.301 415.411 281.652 411.873 291.004C410.271 295.239 412.957 299.159 416.44 301.442C422.666 305.524 430.907 305.081 438 304.996C462.171 304.709 491.018 288.129 509.471 312.001C512.008 315.283 513.774 319.036 514.958 323C518.305 334.217 515.472 344.58 508.834 354C500.315 366.089 489.397 374.436 475 378.244C454.026 383.791 432.428 379.891 414.004 393.761C397.25 406.373 392.304 434.701 370 440.443C358.661 443.362 346.077 438.956 336 434.051C329.747 431.008 323.28 425.578 316 427z"/>
</svg>
